<?xml version="1.0" encoding="UTF-8"?>
<svg version="1.1" xmlns="http://www.w3.org/2000/svg" width="394" height="469">
<path d="M0 0 C2.8125 1.6875 2.8125 1.6875 5 4 C5.8125 7.75 5.8125 7.75 6 11 C6.66 11 7.32 11 8 11 C8.06058594 11.69867188 8.12117187 12.39734375 8.18359375 13.1171875 C8.26738281 14.02726562 8.35117188 14.93734375 8.4375 15.875 C8.51871094 16.77992187 8.59992188 17.68484375 8.68359375 18.6171875 C8.86989285 21.01110861 8.86989285 21.01110861 10 23 C11.98 22.505 11.98 22.505 14 22 C13.89558594 20.44539063 13.89558594 20.44539063 13.7890625 18.859375 C13.73277236 17.48964826 13.67817352 16.11985127 13.625 14.75 C13.57472656 14.06808594 13.52445313 13.38617188 13.47265625 12.68359375 C13.4140625 10.671875 13.4140625 10.671875 14 7 C17.31836085 4.07965732 19.1491623 3.07463489 23.5625 2.6875 C26.45477985 2.95043453 29.18043746 3.31646969 32 4 C32 4.66 32 5.32 32 6 C32.639375 6.268125 33.27875 6.53625 33.9375 6.8125 C36 8 36 8 37 11 C37.0685495 12.89470816 37.08480372 14.7916834 37.0625 16.6875 C37.05347656 17.68136719 37.04445313 18.67523437 37.03515625 19.69921875 C37.01775391 20.83810547 37.01775391 20.83810547 37 22 C39.7579234 22 41.46997758 21.97543033 44 21 C45.81759002 19.05677011 47.21435671 17.0560681 48.640625 14.8125 C50 13 50 13 53 12 C57.56187786 11.74656234 60.87151072 11.99830823 65 14 C65 14.66 65 15.32 65 16 C66.175625 16.3403125 66.175625 16.3403125 67.375 16.6875 C70 18 70 18 71.3125 20 C72.65241633 25.84690762 73.1803906 32.699349 70 38 C67.33659338 41.4467615 65.26743532 43.25923764 61 44 C54.32872508 44 50.82857333 40.15481891 46 36 C44.71875 38.84375 44.71875 38.84375 45.6875 41.0625 C46.85669943 43.15122078 46.85669943 43.15122078 49.0625 43.9375 C49.701875 44.288125 50.34125 44.63875 51 45 C51.75 47.625 51.75 47.625 52 50 C52.66 50 53.32 50 54 50 C55.06929502 58.58830605 55.06929502 58.58830605 52.51171875 61.96484375 C50.13079212 63.98099073 47.78938171 65.60530915 45 67 C45.680625 67.495 46.36125 67.99 47.0625 68.5 C50.17683046 71.15049401 52.71127842 74.00259037 55.359375 77.10546875 C56.61908557 78.56013453 57.95181575 79.95181575 59.3125 81.3125 C61.87395364 83.87395364 63 85.31840509 63 89 C63.99 89.33 64.98 89.66 66 90 C67.1875 93.5625 67.1875 93.5625 68 97 C68.66 97 69.32 97 70 97 C70.99 100.3 71.98 103.6 73 107 C73.66 107 74.32 107 75 107 C75.50559908 108.43554025 76.0042749 109.8735202 76.5 111.3125 C76.91765625 112.51326172 76.91765625 112.51326172 77.34375 113.73828125 C78 116 78 116 78 119 C78.66 119 79.32 119 80 119 C80.25394531 119.90621094 80.50789063 120.81242187 80.76953125 121.74609375 C81.11371094 122.96425781 81.45789063 124.18242188 81.8125 125.4375 C82.14894531 126.63246094 82.48539062 127.82742187 82.83203125 129.05859375 C83.64789312 131.88782701 84.55796422 134.67139576 85.51171875 137.45703125 C91.20347214 154.40272891 92.37260921 172.31389351 94 190 C94.17055127 191.81144706 94.3434649 193.62267442 94.51953125 195.43359375 C94.58889893 196.15474365 94.6582666 196.87589355 94.72973633 197.61889648 C94.93921671 199.46448113 95.20627605 201.30357542 95.49658203 203.13818359 C96.114437 207.87786831 96.339824 212.58229967 96.53515625 217.35546875 C96.59989388 218.86059021 96.59989388 218.86059021 96.66593933 220.39611816 C96.80354336 223.6597162 96.93409783 226.92352753 97.0625 230.1875 C97.10669067 231.29815826 97.15088135 232.40881653 97.19641113 233.5531311 C97.77228861 248.2635689 98.20904568 262.96530338 98.25 277.6875 C98.25508575 278.43067474 98.26017151 279.17384949 98.26541138 279.93954468 C98.27706531 282.0263001 98.27419178 284.11245932 98.265625 286.19921875 C98.26336914 287.35252686 98.26111328 288.50583496 98.25878906 289.6940918 C98 293 98 293 96.92089844 296.73754883 C95.67815913 299.97123089 95.67815913 299.97123089 97 303 C97.25239725 307.24932533 97.27101881 311.50101485 97.29516602 315.75683594 C97.30657634 317.1511458 97.3268502 318.54541589 97.35668945 319.93945312 C97.56324805 329.60501087 96.38716085 337.85011113 93 347 C92.41180663 348.76922498 91.82794335 350.53990023 91.25 352.3125 C90.8375 353.529375 90.425 354.74625 90 356 C89.34 356 88.68 356 88 356 C87.83564453 356.95712891 87.83564453 356.95712891 87.66796875 357.93359375 C87.50941406 358.75988281 87.35085938 359.58617187 87.1875 360.4375 C87.03667969 361.26121094 86.88585937 362.08492188 86.73046875 362.93359375 C86.48941406 363.61550781 86.24835938 364.29742187 86 365 C85.01 365.33 84.02 365.66 83 366 C82.38932856 367.85744207 82.38932856 367.85744207 82 370 C81.36345658 371.3479743 80.70394612 372.68596724 80 374 C79.34 374 78.68 374 78 374 C77.7525 374.845625 77.505 375.69125 77.25 376.5625 C76.11554922 379.68223965 74.71470261 382.34316753 73.01953125 385.1875 C71.42301983 388.02574252 70.22978349 390.98703045 69 394 C68.34 394 67.68 394 67 394 C66.67 389.71 66.34 385.42 66 381 C62.2177186 385.42066579 62.2177186 385.42066579 60.6875 388.4375 C58.70876187 391.44225049 56.41871194 393.34425071 53.62109375 395.5703125 C51.74913641 397.09773544 51.74913641 397.09773544 50 400 C46.964349 401.92257897 45.78149076 402 42 402 C41.75957724 397.91281305 42.57741188 394.82320557 44 391 C41.9754262 392.93254772 40.57894208 394.63158688 39 397 C38.34 397 37.68 397 37 397 C36.7525 397.639375 36.505 398.27875 36.25 398.9375 C34.67012061 401.544301 33.83219689 401.29195078 31 402 C30.690625 402.66 30.38125 403.32 30.0625 404 C29.711875 404.66 29.36125 405.32 29 406 C26.375 406.75 26.375 406.75 24 407 C24 407.66 24 408.32 24 409 C23.01 409 22.02 409 21 409 C20.62875 410.175625 20.62875 410.175625 20.25 411.375 C18.79075497 414.43941457 17.94985044 414.61725761 15 416 C14.32502059 417.32914447 13.66017287 418.66343949 13 420 C7.52986649 427.61062054 1.14278733 433.84941694 -5.79296875 440.078125 C-8.72480193 442.71790819 -11.49648661 445.48618766 -14.25 448.3125 C-18.56733429 452.65759849 -22.98649989 456.48233107 -28 460 C-28.86882812 460.65484375 -29.73765625 461.3096875 -30.6328125 461.984375 C-39.08504061 467.74202358 -47.08512928 468.7946349 -57 467 C-71.03165435 463.44357594 -80.69330731 455.80977644 -89.22265625 444.25 C-91.15916564 441.7985068 -93.25971809 439.67605797 -95.5 437.5 C-106.35264539 426.88893747 -106.35264539 426.88893747 -108 420 C-108.61875 419.690625 -109.2375 419.38125 -109.875 419.0625 C-112.72717515 417.63641242 -113.38465183 415.71378492 -115 413 C-116.65533995 411.65263027 -118.32012773 410.31665664 -120 409 C-120 408.34 -120 407.68 -120 407 C-120.69867188 406.81824219 -121.39734375 406.63648438 -122.1171875 406.44921875 C-123.02726562 406.19785156 -123.93734375 405.94648438 -124.875 405.6875 C-125.77992187 405.44386719 -126.68484375 405.20023437 -127.6171875 404.94921875 C-130 404 -130 404 -132 401 C-132.63679688 400.68160156 -133.27359375 400.36320312 -133.9296875 400.03515625 C-136.32810877 398.83594562 -137.46225418 397.52246138 -139.125 395.4375 C-141.20903634 392.78974334 -141.20903634 392.78974334 -144 391 C-143.979375 391.94875 -143.95875 392.8975 -143.9375 393.875 C-144 397 -144 397 -145 399 C-148.26189156 398.4376049 -149.91134848 397.5859495 -152 395 C-152.495 393.515 -152.495 393.515 -153 392 C-153.66 391.505 -154.32 391.01 -155 390.5 C-157 389 -157 389 -158 386 C-158.99430213 384.99433441 -159.99520392 383.99518081 -161 383 C-162.0868526 381.40486807 -163.12601773 379.77658375 -164.125 378.125 C-164.64320313 377.28195312 -165.16140625 376.43890625 -165.6953125 375.5703125 C-166.99730279 373.00531367 -167.58375872 370.83247112 -168 368 C-168.66 368 -169.32 368 -170 368 C-170.50757862 366.58603098 -171.00574925 365.16868271 -171.5 363.75 C-171.7784375 362.96109375 -172.056875 362.1721875 -172.34375 361.359375 C-173 359 -173 359 -173 355 C-173.66 355 -174.32 355 -175 355 C-175.33 356.65 -175.66 358.3 -176 360 C-177.32 360 -178.64 360 -180 360 C-180.67449966 357.60612843 -181.33976641 355.21030779 -182 352.8125 C-182.28617188 351.80219727 -182.28617188 351.80219727 -182.578125 350.77148438 C-183.5825836 347.09444844 -184.23704741 343.8149818 -184 340 C-184.66 340 -185.32 340 -186 340 C-186.34379399 337.29262236 -186.67735018 334.58493259 -187 331.875 C-187.09829102 331.05692871 -187.19658203 330.23885742 -187.29785156 329.39599609 C-187.85640945 324.40303348 -187.99814848 319.65564641 -187.75 314.625 C-187.60011367 308.18738232 -189.46908648 303.93135438 -192.6875 298.42578125 C-194 296 -194 296 -194 293 C-194.66 293 -195.32 293 -196 293 C-196.02468447 288.19450253 -196.04285255 283.38904182 -196.05493164 278.58349609 C-196.05996621 276.94807289 -196.06679427 275.3126542 -196.07543945 273.67724609 C-196.08754335 271.32909025 -196.093237 268.98099381 -196.09765625 266.6328125 C-196.10281754 265.89942657 -196.10797882 265.16604065 -196.11329651 264.41043091 C-196.11387171 259.22774341 -196.11387171 259.22774341 -195 257 C-194.86381577 255.55146608 -194.78442527 254.09737933 -194.73461914 252.64331055 C-194.68423996 251.28100311 -194.68423996 251.28100311 -194.63284302 249.89117432 C-194.60060638 248.89970398 -194.56836975 247.90823364 -194.53515625 246.88671875 C-194.45766776 244.76163493 -194.38010968 242.63655365 -194.30249023 240.51147461 C-194.26340546 239.39561981 -194.22432068 238.27976501 -194.18405151 237.13009644 C-193.62237158 221.22213059 -193.03479871 205.31868866 -191.9375 189.4375 C-191.81870483 187.66862427 -191.81870483 187.66862427 -191.69750977 185.86401367 C-191.1318581 178.1318581 -191.1318581 178.1318581 -190 177 C-189.62943793 174.86037572 -189.31616481 172.71077652 -189.02734375 170.55859375 C-188.85009766 169.25341797 -188.67285156 167.94824219 -188.49023438 166.60351562 C-188.305899 165.21485577 -188.1216554 163.82618373 -187.9375 162.4375 C-187.74973508 161.04486976 -187.56158899 159.65229086 -187.37304688 158.25976562 C-186.9116008 154.84033189 -186.45409895 151.42041591 -186 148 C-185.34 148 -184.68 148 -184 148 C-183.96261719 147.40574219 -183.92523438 146.81148437 -183.88671875 146.19921875 C-183.12607172 136.60910029 -180.4784925 127.92308946 -177 119 C-176.32264783 117.00359361 -175.65161065 115.00495586 -175 113 C-174.34 113 -173.68 113 -173 113 C-172.90203125 112.14019531 -172.8040625 111.28039062 -172.703125 110.39453125 C-171.92802633 106.65252713 -170.61787666 104.01313258 -168.75 100.6875 C-168.12480469 99.5634375 -167.49960938 98.439375 -166.85546875 97.28125 C-166.24316406 96.1984375 -165.63085938 95.115625 -165 94 C-164.01997894 92.22963937 -163.04068164 90.45887764 -162.0625 88.6875 C-161.37591225 87.45782354 -160.68881098 86.22843249 -160 85 C-159.34 85 -158.68 85 -158 85 C-157.773125 84.278125 -157.54625 83.55625 -157.3125 82.8125 C-155.43721746 78.79403742 -152.83374594 75.8906766 -148.8125 73.9375 C-146.84873748 73.17366526 -146.84873748 73.17366526 -146.31640625 71.265625 C-144.32534756 67.8388771 -141.34210192 66.04350449 -138.125 63.8125 C-137.18720703 63.13670898 -137.18720703 63.13670898 -136.23046875 62.44726562 C-133.14406882 60.27112529 -130.74484974 58.76624758 -127 58 C-127 57.34 -127 56.68 -127 56 C-115.03636778 49.82001329 -104.39357667 45.12795143 -91 43 C-100.96273899 37.06984571 -100.96273899 37.06984571 -112 34 C-113.03640625 33.86851563 -114.0728125 33.73703125 -115.140625 33.6015625 C-123.4280316 32.78012352 -134.11467341 31.74311561 -141.3671875 36.578125 C-141.90601563 37.04734375 -142.44484375 37.5165625 -143 38 C-140.03 38.66 -137.06 39.32 -134 40 C-134 40.66 -134 41.32 -134 42 C-132.824375 42.1546875 -132.824375 42.1546875 -131.625 42.3125 C-129 43 -129 43 -127 46 C-127.22986605 50.36745501 -128.9926345 52.90418257 -132 56 C-132.99 56 -133.98 56 -135 56 C-135 56.66 -135 57.32 -135 58 C-139.4908651 59.49695503 -144.06564239 59.00355173 -148.75195312 58.87304688 C-154.18814516 58.70794946 -154.18814516 58.70794946 -159 61 C-160.18391223 63.37625345 -160.18391223 63.37625345 -161 66 C-161.65213539 67.34050052 -162.31379969 68.67661368 -163 70 C-163.66 70 -164.32 70 -165 70 C-165.0501123 70.63091553 -165.10022461 71.26183105 -165.15185547 71.91186523 C-165.38313719 74.75463751 -165.62886933 77.59597655 -165.875 80.4375 C-165.99294922 81.92733398 -165.99294922 81.92733398 -166.11328125 83.44726562 C-166.23896484 84.86362305 -166.23896484 84.86362305 -166.3671875 86.30859375 C-166.44050293 87.18314209 -166.51381836 88.05769043 -166.58935547 88.95874023 C-166.72486816 89.63235596 -166.86038086 90.30597168 -167 91 C-167.99 91.495 -167.99 91.495 -169 92 C-173.74546273 87.93246052 -176.64034275 83.30270621 -177.3203125 77.05859375 C-177.48002453 67.94360002 -175.83971533 60.20605898 -170 53 C-169.34 53 -168.68 53 -168 53 C-167.731875 52.360625 -167.46375 51.72125 -167.1875 51.0625 C-166 49 -166 49 -163 48 C-163 47.34 -163 46.68 -163 46 C-163.66 46 -164.32 46 -165 46 C-165.24889644 41.36776067 -164.55876493 38.13540414 -162.75 33.875 C-162.33234375 32.86179688 -161.9146875 31.84859375 -161.484375 30.8046875 C-157.26366827 22.82977321 -148.68445316 19.85686297 -140.46484375 17.171875 C-135.27696889 15.89091824 -130.3271319 15.8308847 -125 16 C-125 15.34 -125 14.68 -125 14 C-118.4 14 -111.8 14 -105 14 C-105 14.66 -105 15.32 -105 16 C-104.071875 15.938125 -103.14375 15.87625 -102.1875 15.8125 C-90.1398784 15.88522206 -79.57416429 22.27220887 -70 29 C-70.28875 28.18015625 -70.5775 27.3603125 -70.875 26.515625 C-71.24625 25.43796875 -71.6175 24.3603125 -72 23.25 C-72.37125 22.18265625 -72.7425 21.1153125 -73.125 20.015625 C-74 17 -74 17 -74 13 C-68.51324804 11.13216954 -63.77807024 10.7641604 -58 11 C-57.49339844 12.24716797 -57.49339844 12.24716797 -56.9765625 13.51953125 C-56.53054687 14.60621094 -56.08453125 15.69289063 -55.625 16.8125 C-55.18414062 17.89144531 -54.74328125 18.97039063 -54.2890625 20.08203125 C-53.0520881 23.10730112 -53.0520881 23.10730112 -51 26 C-50.74605469 25.16855469 -50.49210938 24.33710938 -50.23046875 23.48046875 C-49.88628906 22.39378906 -49.54210937 21.30710937 -49.1875 20.1875 C-48.85105469 19.10855469 -48.51460937 18.02960937 -48.16796875 16.91796875 C-47.06969351 14.17411723 -46.34033896 12.75064725 -44 11 C-43.34 11 -42.68 11 -42 11 C-42 10.34 -42 9.68 -42 9 C-39.69 9 -37.38 9 -35 9 C-35 9.66 -35 10.32 -35 11 C-34.34 11 -33.68 11 -33 11 C-30.49982768 17.17230041 -28.59449106 22.24151766 -29 29 C-28.71479595 30.67557379 -28.40044304 32.34817245 -28 34 C-27.01 34 -26.02 34 -25 34 C-24.06059097 30.8060093 -23.83555643 27.88723695 -23.8125 24.5625 C-23.79832031 23.63566406 -23.78414062 22.70882813 -23.76953125 21.75390625 C-24.01614697 18.8070574 -24.83139869 16.69816054 -26 14 C-26.51014434 10.00386935 -26.2015486 8.35444753 -24.1875 4.8125 C-18.03321146 -3.1001567 -9.2379349 -4.29671391 0 0 Z " fill="#407501" transform="translate(245,2)"/>
<path d="M0 0 C2.8125 1.6875 2.8125 1.6875 5 4 C5.8125 7.75 5.8125 7.75 6 11 C6.66 11 7.32 11 8 11 C8.06058594 11.69867188 8.12117187 12.39734375 8.18359375 13.1171875 C8.26738281 14.02726562 8.35117188 14.93734375 8.4375 15.875 C8.51871094 16.77992187 8.59992188 17.68484375 8.68359375 18.6171875 C8.86989285 21.01110861 8.86989285 21.01110861 10 23 C11.98 22.505 11.98 22.505 14 22 C13.89558594 20.44539063 13.89558594 20.44539063 13.7890625 18.859375 C13.73277236 17.48964826 13.67817352 16.11985127 13.625 14.75 C13.57472656 14.06808594 13.52445313 13.38617188 13.47265625 12.68359375 C13.4140625 10.671875 13.4140625 10.671875 14 7 C17.31836085 4.07965732 19.1491623 3.07463489 23.5625 2.6875 C26.45477985 2.95043453 29.18043746 3.31646969 32 4 C32 4.66 32 5.32 32 6 C32.639375 6.268125 33.27875 6.53625 33.9375 6.8125 C36 8 36 8 37 11 C37.0685495 12.89470816 37.08480372 14.7916834 37.0625 16.6875 C37.05347656 17.68136719 37.04445313 18.67523437 37.03515625 19.69921875 C37.01775391 20.83810547 37.01775391 20.83810547 37 22 C39.7579234 22 41.46997758 21.97543033 44 21 C45.81759002 19.05677011 47.21435671 17.0560681 48.640625 14.8125 C50 13 50 13 53 12 C57.56187786 11.74656234 60.87151072 11.99830823 65 14 C65 14.66 65 15.32 65 16 C66.175625 16.3403125 66.175625 16.3403125 67.375 16.6875 C70 18 70 18 71.3125 20 C72.65241633 25.84690762 73.1803906 32.699349 70 38 C67.33659338 41.4467615 65.26743532 43.25923764 61 44 C54.32872508 44 50.82857333 40.15481891 46 36 C44.71875 38.84375 44.71875 38.84375 45.6875 41.0625 C46.85669943 43.15122078 46.85669943 43.15122078 49.0625 43.9375 C49.701875 44.288125 50.34125 44.63875 51 45 C51.75 47.625 51.75 47.625 52 50 C52.66 50 53.32 50 54 50 C55.06929502 58.58830605 55.06929502 58.58830605 52.51171875 61.96484375 C50.13079212 63.98099073 47.78938171 65.60530915 45 67 C45.680625 67.495 46.36125 67.99 47.0625 68.5 C50.17683046 71.15049401 52.71127842 74.00259037 55.359375 77.10546875 C56.61908557 78.56013453 57.95181575 79.95181575 59.3125 81.3125 C61.87395364 83.87395364 63 85.31840509 63 89 C63.99 89.33 64.98 89.66 66 90 C67.1875 93.5625 67.1875 93.5625 68 97 C68.66 97 69.32 97 70 97 C70.99 100.3 71.98 103.6 73 107 C73.66 107 74.32 107 75 107 C75.50559908 108.43554025 76.0042749 109.8735202 76.5 111.3125 C76.91765625 112.51326172 76.91765625 112.51326172 77.34375 113.73828125 C78 116 78 116 78 119 C78.66 119 79.32 119 80 119 C80.25394531 119.90621094 80.50789063 120.81242187 80.76953125 121.74609375 C81.11371094 122.96425781 81.45789063 124.18242188 81.8125 125.4375 C82.14894531 126.63246094 82.48539062 127.82742187 82.83203125 129.05859375 C83.64789312 131.88782701 84.55796422 134.67139576 85.51171875 137.45703125 C91.20347214 154.40272891 92.37260921 172.31389351 94 190 C94.17055127 191.81144706 94.3434649 193.62267442 94.51953125 195.43359375 C94.58889893 196.15474365 94.6582666 196.87589355 94.72973633 197.61889648 C94.93897127 199.46231868 95.2060208 201.29922752 95.49658203 203.1315918 C96.11819689 207.90825881 96.34032858 212.65056218 96.53515625 217.4609375 C96.57822403 218.4728717 96.62129181 219.48480591 96.66566467 220.52740479 C96.80285484 223.80975671 96.93337069 227.09232165 97.0625 230.375 C97.10735535 231.48816589 97.15221069 232.60133179 97.19842529 233.74822998 C97.94592378 252.50865187 98.26648947 271.22684201 98 290 C96.68 289.67 95.36 289.34 94 289 C94 288.34 94 287.68 94 287 C93.29617188 286.86464844 92.59234375 286.72929687 91.8671875 286.58984375 C85.65090736 285.2345973 80.33177139 283.34740671 74.75 280.375 C69.63014698 277.6788468 65.77607386 276.11552148 60 276 C54.57295626 284.14056561 50.56232489 292.90003262 47 302 C46.34 301.67 45.68 301.34 45 301 C44.45090484 298.57432689 44.01086079 296.20239089 43.625 293.75 C42.71666591 288.42312914 41.60593793 283.34167072 39.9375 278.1875 C37.35776123 270.21106634 35.6262945 262.4083737 36 254 C35.34 254 34.68 254 34 254 C33.06380187 250.84493858 32.8942877 248.03413498 32.9375 244.75 C32.94652344 243.85796875 32.95554687 242.9659375 32.96484375 242.046875 C32.98224609 241.03367188 32.98224609 241.03367188 33 240 C33.66 240 34.32 240 35 240 C35.33 234.39 35.66 228.78 36 223 C35.01 222.67 34.02 222.34 33 222 C32.89042969 221.31035156 32.78085937 220.62070313 32.66796875 219.91015625 C31.91236735 215.43183577 31.16246628 211.1738354 29.5 206.9375 C25.39264198 195.2200624 23.02315064 174.93054808 27 163 C27.24397357 156.29072681 26.62322697 149.67743186 26 143 C25.34 143 24.68 143 24 143 C22.9108272 140.8216544 22.71967644 139.2796036 22.46484375 136.8671875 C22.37783203 136.06152344 22.29082031 135.25585938 22.20117188 134.42578125 C22.11416016 133.58402344 22.02714844 132.74226562 21.9375 131.875 C21.80118164 130.60076172 21.80118164 130.60076172 21.66210938 129.30078125 C21.4379632 127.2008855 21.21853552 125.10048707 21 123 C20.34 123 19.68 123 19 123 C18.89042969 122.16339844 18.78085937 121.32679687 18.66796875 120.46484375 C18.1466575 116.63765631 17.58503736 112.81784943 17 109 C16.80535156 107.71867187 16.61070312 106.43734375 16.41015625 105.1171875 C14.42878631 93.69793116 9.86876844 85.55022153 3.37109375 76.1328125 C2.02498206 74.03886098 0.97556803 71.94706977 -0.0625 69.6875 C-2.07281156 65.4650046 -4.81413691 63.09293154 -9 61 C-9.74062544 58.89963255 -10.394414 56.76820672 -11 54.625 C-12.05390598 50.91162815 -12.85117062 48.22324407 -15 45 C-18.10639555 44.58166222 -18.10639555 44.58166222 -21.7578125 44.70703125 C-22.42086395 44.71127609 -23.08391541 44.71552094 -23.76705933 44.71989441 C-25.88678441 44.73670029 -28.00556188 44.77435299 -30.125 44.8125 C-31.56118419 44.82754451 -32.99738328 44.84123332 -34.43359375 44.85351562 C-37.95603764 44.8866091 -41.47792636 44.9384032 -45 45 C-44.65066406 45.67546875 -44.30132812 46.3509375 -43.94140625 47.046875 C-43.48636719 47.93890625 -43.03132812 48.8309375 -42.5625 49.75 C-42.11003906 50.63171875 -41.65757812 51.5134375 -41.19140625 52.421875 C-39.18412009 56.76551064 -38.90249161 59.9756817 -39.15625 64.75390625 C-39.20910156 65.85541016 -39.26195312 66.95691406 -39.31640625 68.09179688 C-39.37699219 69.23712891 -39.43757812 70.38246094 -39.5 71.5625 C-39.61977317 73.83436775 -39.73458949 76.10650385 -39.84375 78.37890625 C-39.89724609 79.3851001 -39.95074219 80.39129395 -40.00585938 81.42797852 C-40.13435711 84.12037155 -40.13435711 84.12037155 -39 87 C-37.7934375 88.0828125 -37.7934375 88.0828125 -36.5625 89.1875 C-33.77833281 92.24329326 -33.17901269 94.00230444 -32.45703125 97.9375 C-32.06132648 100.07933321 -32.06132648 100.07933321 -30.9609375 102.21484375 C-29.65496987 106.00002635 -29.74777931 109.61008856 -29.8125 113.5625 C-29.82216797 114.81389771 -29.82216797 114.81389771 -29.83203125 116.09057617 C-29.90280726 122.00756082 -30.16886845 127.90516024 -30.5 133.8125 C-30.91148891 141.18854856 -31.13856238 148.54975498 -31.1875 155.9375 C-31.20039063 156.86731689 -31.21328125 157.79713379 -31.2265625 158.75512695 C-31.25593057 165.12023054 -31.25593057 165.12023054 -29 171 C-28.47535156 171.44214844 -27.95070312 171.88429687 -27.41015625 172.33984375 C-25.13607325 175.01708828 -25.5043146 178.19949845 -25.4375 181.5625 C-25.58170078 186.76174417 -25.58170078 186.76174417 -23 191 C-22.82055664 192.84765625 -22.82055664 192.84765625 -22.91015625 195.0625 C-22.93013672 195.85914063 -22.95011719 196.65578125 -22.97070312 197.4765625 C-23.03190637 199.1590006 -23.09701159 200.84130128 -23.16601562 202.5234375 C-23.18470703 203.32007813 -23.20339844 204.11671875 -23.22265625 204.9375 C-23.25109619 205.66839844 -23.27953613 206.39929688 -23.30883789 207.15234375 C-23.20692139 207.76207031 -23.10500488 208.37179688 -23 209 C-22.01 209.66 -21.02 210.32 -20 211 C-19.50542192 214.62690591 -19.76898827 216.566853 -21.5 219.8125 C-23.00598717 223.01272274 -23.09805183 223.91009227 -22.875 227.25 C-22.65712154 232.21092494 -24.42930555 235.42981943 -26.90625 239.640625 C-28.15704949 242.33877818 -28.35523212 244.05946745 -28 247 C-27.34 247.66 -26.68 248.32 -26 249 C-24.98216802 257.47150623 -24.02083581 270.20493328 -28.00683594 277.95849609 C-30.72960165 281.03748135 -34.29187948 282.42851042 -38 284 C-39.46809029 285.17097678 -40.90939672 286.37689068 -42.3125 287.625 C-45.55290218 290.05365174 -45.55290218 290.05365174 -49.125 289.625 C-52.21956207 287.8758997 -55.16975343 286.15637834 -58 284 C-58 283.34 -58 282.68 -58 282 C-58.71285156 281.74863281 -59.42570312 281.49726563 -60.16015625 281.23828125 C-66.75185854 278.36404518 -77.67326787 271.65346426 -81 265 C-86.36030112 265.3281817 -89.15142659 266.43281362 -93.2265625 269.94140625 C-95.56427906 271.33682737 -97.32730301 271.17787574 -100 271 C-100.08636719 270.31035156 -100.17273438 269.62070312 -100.26171875 268.91015625 C-101.01156803 263.89510926 -101.87330052 259.75283247 -104.5 255.375 C-109.01088456 247.8126347 -109.20156371 240.15414931 -109.60424805 231.51293945 C-109.828149 227.00279338 -110.29533935 222.64561539 -111.0625 218.1875 C-112.70602916 208.25218088 -112.85378503 197.75170394 -110 188 C-109.0246803 186.97591432 -108.02753217 185.97168803 -107 185 C-106.74951364 181.87450983 -106.74951364 181.87450983 -107 179 C-107.66 179 -108.32 179 -109 179 C-111.53081593 170.03144489 -112.42697885 161.68733659 -112.28125 152.37890625 C-112.24991581 150.3696012 -112.24023653 148.36108888 -112.234375 146.3515625 C-112.07617744 126.33957154 -112.07617744 126.33957154 -108.765625 117.4140625 C-107.28162511 112.73491998 -106.69732383 107.84845154 -106 103 C-105.34 103 -104.68 103 -104 103 C-104.07605469 101.84628906 -104.15210938 100.69257812 -104.23046875 99.50390625 C-104.22507928 94.60703087 -102.60594731 91.18264214 -100.3125 86.9375 C-99.97283203 86.26912109 -99.63316406 85.60074219 -99.28320312 84.91210938 C-97.50670716 81.49526012 -95.58396039 78.3409998 -93.30078125 75.23828125 C-90.81231152 72.10221802 -90.81231152 72.10221802 -89.875 68.25 C-88.26191958 63.34354706 -84.53291138 60.19161968 -80.84716797 56.76855469 C-78.42085662 54.50661428 -77.06921313 53.20763938 -76 50 C-76.66 50 -77.32 50 -78 50 C-77.67 48.68 -77.34 47.36 -77 46 C-75.68 45.67 -74.36 45.34 -73 45 C-73 44.34 -73 43.68 -73 43 C-73.98097656 43.165 -74.96195312 43.33 -75.97265625 43.5 C-86.0111299 44.84757232 -91.97965646 43.36909501 -100.5 37.98046875 C-110.83072927 31.65133681 -124.78850342 32.46106537 -136.2578125 34.234375 C-139.11714278 35.03270653 -140.77783168 36.06490606 -143 38 C-140.03 38.66 -137.06 39.32 -134 40 C-134 40.66 -134 41.32 -134 42 C-132.824375 42.1546875 -132.824375 42.1546875 -131.625 42.3125 C-129 43 -129 43 -127 46 C-127.22986605 50.36745501 -128.9926345 52.90418257 -132 56 C-132.99 56 -133.98 56 -135 56 C-135 56.66 -135 57.32 -135 58 C-139.4908651 59.49695503 -144.06564239 59.00355173 -148.75195312 58.87304688 C-154.18814516 58.70794946 -154.18814516 58.70794946 -159 61 C-160.18391223 63.37625345 -160.18391223 63.37625345 -161 66 C-161.65213539 67.34050052 -162.31379969 68.67661368 -163 70 C-163.66 70 -164.32 70 -165 70 C-165.0501123 70.63091553 -165.10022461 71.26183105 -165.15185547 71.91186523 C-165.38313719 74.75463751 -165.62886933 77.59597655 -165.875 80.4375 C-165.99294922 81.92733398 -165.99294922 81.92733398 -166.11328125 83.44726562 C-166.19707031 84.39150391 -166.28085938 85.33574219 -166.3671875 86.30859375 C-166.47716064 87.62041626 -166.47716064 87.62041626 -166.58935547 88.95874023 C-166.72486816 89.63235596 -166.86038086 90.30597168 -167 91 C-167.99 91.495 -167.99 91.495 -169 92 C-173.74546273 87.93246052 -176.64034275 83.30270621 -177.3203125 77.05859375 C-177.48002453 67.94360002 -175.83971533 60.20605898 -170 53 C-169.34 53 -168.68 53 -168 53 C-167.731875 52.360625 -167.46375 51.72125 -167.1875 51.0625 C-166 49 -166 49 -163 48 C-163 47.34 -163 46.68 -163 46 C-163.66 46 -164.32 46 -165 46 C-165.24889644 41.36776067 -164.55876493 38.13540414 -162.75 33.875 C-162.33234375 32.86179688 -161.9146875 31.84859375 -161.484375 30.8046875 C-157.26366827 22.82977321 -148.68445316 19.85686297 -140.46484375 17.171875 C-135.27696889 15.89091824 -130.3271319 15.8308847 -125 16 C-125 15.34 -125 14.68 -125 14 C-118.4 14 -111.8 14 -105 14 C-105 14.66 -105 15.32 -105 16 C-104.071875 15.938125 -103.14375 15.87625 -102.1875 15.8125 C-90.1398784 15.88522206 -79.57416429 22.27220887 -70 29 C-70.28875 28.18015625 -70.5775 27.3603125 -70.875 26.515625 C-71.24625 25.43796875 -71.6175 24.3603125 -72 23.25 C-72.37125 22.18265625 -72.7425 21.1153125 -73.125 20.015625 C-74 17 -74 17 -74 13 C-68.51324804 11.13216954 -63.77807024 10.7641604 -58 11 C-57.49339844 12.24716797 -57.49339844 12.24716797 -56.9765625 13.51953125 C-56.53054687 14.60621094 -56.08453125 15.69289063 -55.625 16.8125 C-55.18414062 17.89144531 -54.74328125 18.97039063 -54.2890625 20.08203125 C-53.0520881 23.10730112 -53.0520881 23.10730112 -51 26 C-50.74605469 25.16855469 -50.49210937 24.33710938 -50.23046875 23.48046875 C-49.88628906 22.39378906 -49.54210937 21.30710937 -49.1875 20.1875 C-48.85105469 19.10855469 -48.51460937 18.02960937 -48.16796875 16.91796875 C-47.06969351 14.17411723 -46.34033896 12.75064725 -44 11 C-43.34 11 -42.68 11 -42 11 C-42 10.34 -42 9.68 -42 9 C-39.69 9 -37.38 9 -35 9 C-35 9.66 -35 10.32 -35 11 C-34.34 11 -33.68 11 -33 11 C-30.49982768 17.17230041 -28.59449106 22.24151766 -29 29 C-28.71479595 30.67557379 -28.40044304 32.34817245 -28 34 C-27.01 34 -26.02 34 -25 34 C-24.06059097 30.8060093 -23.83555643 27.88723695 -23.8125 24.5625 C-23.79832031 23.63566406 -23.78414062 22.70882813 -23.76953125 21.75390625 C-24.01614697 18.8070574 -24.83139869 16.69816054 -26 14 C-26.51014434 10.00386935 -26.2015486 8.35444753 -24.1875 4.8125 C-18.03321146 -3.1001567 -9.2379349 -4.29671391 0 0 Z " fill="#98BC1C" transform="translate(245,2)"/>
<path d="M0 0 C2.8125 1.6875 2.8125 1.6875 5 4 C5.8125 7.75 5.8125 7.75 6 11 C6.66 11 7.32 11 8 11 C8.06058594 11.69867188 8.12117188 12.39734375 8.18359375 13.1171875 C8.26738281 14.02726562 8.35117188 14.93734375 8.4375 15.875 C8.51871094 16.77992187 8.59992188 17.68484375 8.68359375 18.6171875 C8.86989285 21.01110861 8.86989285 21.01110861 10 23 C11.32 22.67 12.64 22.34 14 22 C13.89558594 20.44539063 13.89558594 20.44539063 13.7890625 18.859375 C13.73277236 17.48964826 13.67817352 16.11985127 13.625 14.75 C13.57472656 14.06808594 13.52445312 13.38617188 13.47265625 12.68359375 C13.4140625 10.671875 13.4140625 10.671875 14 7 C17.31836085 4.07965732 19.1491623 3.07463489 23.5625 2.6875 C26.45477985 2.95043453 29.18043746 3.31646969 32 4 C32 4.66 32 5.32 32 6 C32.639375 6.268125 33.27875 6.53625 33.9375 6.8125 C36 8 36 8 37 11 C37.0685495 12.89470816 37.08480372 14.7916834 37.0625 16.6875 C37.05347656 17.68136719 37.04445313 18.67523437 37.03515625 19.69921875 C37.02355469 20.45847656 37.01195312 21.21773437 37 22 C39.7579234 22 41.46997758 21.97543033 44 21 C45.81759002 19.05677011 47.21435671 17.0560681 48.640625 14.8125 C50 13 50 13 53 12 C57.56187786 11.74656234 60.87151072 11.99830823 65 14 C65 14.66 65 15.32 65 16 C66.175625 16.3403125 66.175625 16.3403125 67.375 16.6875 C70 18 70 18 71.3125 20 C72.65241633 25.84690762 73.1803906 32.699349 70 38 C67.33659338 41.4467615 65.26743532 43.25923764 61 44 C54.32872508 44 50.82857333 40.15481891 46 36 C44.71875 38.84375 44.71875 38.84375 45.6875 41.0625 C46.85669943 43.15122078 46.85669943 43.15122078 49.0625 43.9375 C49.701875 44.288125 50.34125 44.63875 51 45 C51.75 47.625 51.75 47.625 52 50 C52.66 50 53.32 50 54 50 C55.06929502 58.58830605 55.06929502 58.58830605 52.51171875 61.96484375 C50.13079212 63.98099073 47.78938171 65.60530915 45 67 C45.680625 67.495 46.36125 67.99 47.0625 68.5 C50.17683046 71.15049401 52.71127842 74.00259037 55.359375 77.10546875 C56.61908557 78.56013453 57.95181575 79.95181575 59.3125 81.3125 C61.87395364 83.87395364 63 85.31840509 63 89 C64.485 89.495 64.485 89.495 66 90 C67.1875 93.5625 67.1875 93.5625 68 97 C68.66 97 69.32 97 70 97 C70.99 100.3 71.98 103.6 73 107 C73.66 107 74.32 107 75 107 C75.50559908 108.43554025 76.0042749 109.8735202 76.5 111.3125 C76.91765625 112.51326172 76.91765625 112.51326172 77.34375 113.73828125 C78 116 78 116 78 119 C78.66 119 79.32 119 80 119 C80.25394531 119.90621094 80.50789062 120.81242187 80.76953125 121.74609375 C81.11371094 122.96425781 81.45789063 124.18242188 81.8125 125.4375 C82.14894531 126.63246094 82.48539063 127.82742187 82.83203125 129.05859375 C83.64789312 131.88782701 84.55796422 134.67139576 85.51171875 137.45703125 C91.20347214 154.40272891 92.37260921 172.31389351 94 190 C94.17055127 191.81144706 94.3434649 193.62267442 94.51953125 195.43359375 C94.58889893 196.15474365 94.6582666 196.87589355 94.72973633 197.61889648 C94.93897127 199.46231868 95.2060208 201.29922752 95.49658203 203.1315918 C96.11819689 207.90825881 96.34032858 212.65056218 96.53515625 217.4609375 C96.57822403 218.4728717 96.62129181 219.48480591 96.66566467 220.52740479 C96.80285484 223.80975671 96.93337069 227.09232165 97.0625 230.375 C97.10735535 231.48816589 97.15221069 232.60133179 97.19842529 233.74822998 C97.94592378 252.50865187 98.26648947 271.22684201 98 290 C96.68 289.67 95.36 289.34 94 289 C94 288.34 94 287.68 94 287 C93.29617188 286.86464844 92.59234375 286.72929687 91.8671875 286.58984375 C85.65090736 285.2345973 80.33177139 283.34740671 74.75 280.375 C69.63014698 277.6788468 65.77607386 276.11552148 60 276 C54.57295626 284.14056561 50.56232489 292.90003262 47 302 C46.34 301.67 45.68 301.34 45 301 C44.45090484 298.57432689 44.01086079 296.20239089 43.625 293.75 C42.71666591 288.42312914 41.60593793 283.34167072 39.9375 278.1875 C37.35776123 270.21106634 35.6262945 262.4083737 36 254 C35.34 254 34.68 254 34 254 C33.06380187 250.84493858 32.8942877 248.03413498 32.9375 244.75 C32.94652344 243.85796875 32.95554687 242.9659375 32.96484375 242.046875 C32.97644531 241.37140625 32.98804688 240.6959375 33 240 C33.66 240 34.32 240 35 240 C35.33 234.39 35.66 228.78 36 223 C35.01 222.67 34.02 222.34 33 222 C32.89042969 221.31035156 32.78085937 220.62070313 32.66796875 219.91015625 C31.91236735 215.43183577 31.16246628 211.1738354 29.5 206.9375 C25.39264198 195.2200624 23.02315064 174.93054808 27 163 C27.24397357 156.29072681 26.62322697 149.67743186 26 143 C25.34 143 24.68 143 24 143 C22.9108272 140.8216544 22.71967644 139.2796036 22.46484375 136.8671875 C22.37783203 136.06152344 22.29082031 135.25585938 22.20117188 134.42578125 C22.11416016 133.58402344 22.02714844 132.74226562 21.9375 131.875 C21.80118164 130.60076172 21.80118164 130.60076172 21.66210938 129.30078125 C21.4379632 127.2008855 21.21853552 125.10048707 21 123 C20.34 123 19.68 123 19 123 C18.83564453 121.74509766 18.83564453 121.74509766 18.66796875 120.46484375 C18.1466575 116.63765631 17.58503736 112.81784943 17 109 C16.80535156 107.71867187 16.61070312 106.43734375 16.41015625 105.1171875 C14.42878631 93.69793116 9.86876844 85.55022153 3.37109375 76.1328125 C2.02498206 74.03886098 0.97556803 71.94706977 -0.0625 69.6875 C-2.07281156 65.4650046 -4.81413691 63.09293154 -9 61 C-9.74062544 58.89963255 -10.394414 56.76820672 -11 54.625 C-12.05390598 50.91162815 -12.85117062 48.22324407 -15 45 C-18.2001106 44.48745872 -18.2001106 44.48745872 -21.9765625 44.48828125 C-22.66181 44.47033005 -23.3470575 44.45237885 -24.05307007 44.43388367 C-26.24365059 44.37966292 -28.4340119 44.34584947 -30.625 44.3125 C-32.10940559 44.27933706 -33.59378221 44.24484835 -35.078125 44.20898438 C-38.71853912 44.12393185 -42.35902944 44.05717644 -46 44 C-44.02 43.505 -44.02 43.505 -42 43 C-44.09639045 39.6613041 -45.81066586 37.17212195 -48.75 34.5 C-51 32 -51 32 -51.25390625 29.23046875 C-50.98647828 25.82796215 -50.28022497 23.04156367 -49.1875 19.8125 C-48.85105469 18.78769531 -48.51460937 17.76289063 -48.16796875 16.70703125 C-47.05067402 14.11744847 -46.22337289 12.6981667 -44 11 C-43.34 11 -42.68 11 -42 11 C-42 10.34 -42 9.68 -42 9 C-39.69 9 -37.38 9 -35 9 C-35 9.66 -35 10.32 -35 11 C-34.34 11 -33.68 11 -33 11 C-30.49982768 17.17230041 -28.59449106 22.24151766 -29 29 C-28.71479595 30.67557379 -28.40044304 32.34817245 -28 34 C-27.01 34 -26.02 34 -25 34 C-24.06059097 30.8060093 -23.83555643 27.88723695 -23.8125 24.5625 C-23.79832031 23.63566406 -23.78414062 22.70882813 -23.76953125 21.75390625 C-24.01614697 18.8070574 -24.83139869 16.69816054 -26 14 C-26.51014434 10.00386935 -26.2015486 8.35444753 -24.1875 4.8125 C-18.03321146 -3.1001567 -9.2379349 -4.29671391 0 0 Z " fill="#97BB1C" transform="translate(245,2)"/>
<path d="M0 0 C1.875 0.3125 1.875 0.3125 4 1 C6.29633824 4.44450737 6.54016485 6.93812283 7 11 C7.28875 10.21625 7.5775 9.4325 7.875 8.625 C9 6 9 6 11 4 C19.46084175 3.53849954 23.94966961 8.67297243 30 14 C32.89285508 16.25155765 32.89285508 16.25155765 36.5 16.4375 C40.81556841 17.13107349 40.81556841 17.13107349 43 20 C44.24609375 23.01171875 44.24609375 23.01171875 45.4375 26.6875 C45.75944336 27.67302856 45.75944336 27.67302856 46.08789062 28.6784668 C47.62807624 33.50754283 48.84811592 38.37888099 50 43.3125 C51.80137442 50.9856711 54.63587518 57.45381276 59 64 C61.62697064 64.22137393 64.00893964 64.28162025 66.625 64.1875 C67.33140625 64.17396484 68.0378125 64.16042969 68.765625 64.14648438 C70.51074128 64.1111104 72.25546608 64.05730221 74 64 C73.14479011 78.53856819 64.82536842 91.43490058 58.04394531 103.93798828 C56.88375186 106.10478318 56.88375186 106.10478318 56 109 C55.34 109 54.68 109 54 109 C53.74863281 109.556875 53.49726563 110.11375 53.23828125 110.6875 C48.47697691 119.5792734 40.61210787 126.42794008 33.20703125 133.078125 C30.27519807 135.71790819 27.50351339 138.48618766 24.75 141.3125 C20.43266571 145.65759849 16.01350011 149.48233107 11 153 C10.13117188 153.65484375 9.26234375 154.3096875 8.3671875 154.984375 C-0.08504061 160.74202358 -8.08512928 161.7946349 -18 160 C-32.03165435 156.44357594 -41.69330731 148.80977644 -50.22265625 137.25 C-52.15916564 134.7985068 -54.25971809 132.67605797 -56.5 130.5 C-67.35264539 119.88893747 -67.35264539 119.88893747 -69 113 C-69.61875 112.690625 -70.2375 112.38125 -70.875 112.0625 C-73.76152574 110.61923713 -74.43202482 108.79484787 -76 106 C-76.44448486 105.20907959 -76.88896973 104.41815918 -77.34692383 103.60327148 C-96.34930234 68.92418652 -96.34930234 68.92418652 -96.125 60.625 C-96.10695313 59.75101562 -96.08890625 58.87703125 -96.0703125 57.9765625 C-96.04710938 57.32429688 -96.02390625 56.67203125 -96 56 C-95.25556641 56.433125 -95.25556641 56.433125 -94.49609375 56.875 C-89.87157716 59.40225006 -86.36536009 61.05391002 -81 60 C-73.57793995 55.84664518 -70.08932016 48.39744005 -66.20263672 41.19091797 C-63.82891872 36.86656853 -61.32237914 32.62127594 -58.8125 28.375 C-58.06371582 27.07719604 -58.06371582 27.07719604 -57.29980469 25.75317383 C-54.06082444 20.28106432 -51.28242275 16.09414092 -45 14 C-39.03125172 13.16437524 -35.73198408 14.84306969 -31.00390625 18.203125 C-29.01253991 19.98875564 -27.95607411 21.44918069 -26.75 23.8125 C-26.1725 24.864375 -25.595 25.91625 -25 27 C-22.44944828 27.74695576 -22.44944828 27.74695576 -20 28 C-20.01571045 27.40985107 -20.0314209 26.81970215 -20.04760742 26.21166992 C-20.10997939 23.53704414 -20.14899657 20.86257136 -20.1875 18.1875 C-20.21263672 17.25873047 -20.23777344 16.32996094 -20.26367188 15.37304688 C-20.27333984 14.48037109 -20.28300781 13.58769531 -20.29296875 12.66796875 C-20.3086792 11.84578857 -20.32438965 11.0236084 -20.34057617 10.17651367 C-20 8 -20 8 -18.65307617 6.19970703 C-17 5 -17 5 -14.2578125 5.13671875 C-13.22398437 5.31847656 -12.19015625 5.50023437 -11.125 5.6875 C-6.87349332 6.32912521 -6.87349332 6.32912521 -3.1015625 4.7421875 C-1.55973537 2.91646916 -1.55973537 2.91646916 0 0 Z " fill="#D2D1D1" transform="translate(206,309)"/>
<path d="M0 0 C0.99 0.495 0.99 0.495 2 1 C1.51789063 1.50789063 1.03578125 2.01578125 0.5390625 2.5390625 C-3.46074131 6.77091804 -3.46074131 6.77091804 -5.9375 11.9375 C-7.11547324 15.33283463 -8.50513898 16.82888093 -10.9375 19.4375 C-14.35281353 23.11694749 -16.22327557 26.2620682 -18 31 C-20.02607978 34.89061168 -22.12165291 38.73829759 -24.62890625 42.33984375 C-26.81549831 46.58220611 -26.41947667 50.83327048 -26.49609375 55.52734375 C-27 59 -27 59 -28.90234375 61.796875 C-31.73366118 66.12030199 -32.29412176 70.27304285 -33.125 75.3125 C-33.4323696 77.12242429 -33.74708083 78.93112235 -34.0703125 80.73828125 C-34.26778076 81.92997925 -34.26778076 81.92997925 -34.46923828 83.14575195 C-34.64438965 83.75765381 -34.81954102 84.36955566 -35 85 C-35.99 85.495 -35.99 85.495 -37 86 C-38.11828988 88.49168038 -39.11906213 90.94263608 -40.0625 93.5 C-40.33562012 94.23033447 -40.60874023 94.96066895 -40.89013672 95.71313477 C-42.50769949 100.19204166 -43.48695591 104.23285836 -43.73046875 109.00390625 C-44.05535717 111.40996399 -44.88253078 113.19217278 -45.9375 115.375 C-49.93972455 123.81447352 -50.25580497 132.88080041 -50.65893555 142.07421875 C-50.78828887 144.94193861 -50.93864586 147.70467596 -51.5234375 150.51953125 C-52.18224288 153.94855926 -52.10573893 157.33675529 -52.0625 160.8125 C-52.05798828 161.50537109 -52.05347656 162.19824219 -52.04882812 162.91210938 C-52.03713156 164.60811068 -52.01919924 166.30406703 -52 168 C-51.34 168 -50.68 168 -50 168 C-48.20220313 175.38369482 -47.72958821 182.33269731 -47.8046875 189.9140625 C-47.8075174 191.00971527 -47.81034729 192.10536804 -47.81326294 193.23422241 C-47.82436487 196.69793097 -47.84945061 200.16137097 -47.875 203.625 C-47.88504271 205.98827749 -47.89416629 208.35155907 -47.90234375 210.71484375 C-47.92427139 216.47665252 -47.95764803 222.23830706 -48 228 C-48.99 227.67 -49.98 227.34 -51 227 C-51 226.34 -51 225.68 -51 225 C-55.95 225.99 -55.95 225.99 -61 227 C-61 227.66 -61 228.32 -61 229 C-61.7410498 229.3853894 -61.7410498 229.3853894 -62.49707031 229.77856445 C-64.74998765 230.95286194 -67.00000047 232.1326222 -69.25 233.3125 C-70.02730469 233.71662109 -70.80460937 234.12074219 -71.60546875 234.53710938 C-74.68195575 236.15423716 -77.58726573 237.68634929 -80.359375 239.79296875 C-82 241 -82 241 -85 241 C-85.02469321 236.7641643 -85.04285671 232.52836658 -85.05493164 228.29248047 C-85.05996474 226.8510668 -85.06679173 225.40965824 -85.07543945 223.96826172 C-85.08754983 221.89809915 -85.09323847 219.82800399 -85.09765625 217.7578125 C-85.10289307 216.5114502 -85.10812988 215.26508789 -85.11352539 213.98095703 C-85 211 -85 211 -84 209 C-83.86381577 207.55146608 -83.78442527 206.09737933 -83.73461914 204.64331055 C-83.68423996 203.28100311 -83.68423996 203.28100311 -83.63284302 201.89117432 C-83.60060638 200.89970398 -83.56836975 199.90823364 -83.53515625 198.88671875 C-83.45766776 196.76163493 -83.38010968 194.63655365 -83.30249023 192.51147461 C-83.26340546 191.39561981 -83.22432068 190.27976501 -83.18405151 189.13009644 C-82.62237158 173.22213059 -82.03479871 157.31868866 -80.9375 141.4375 C-80.81870483 139.66862427 -80.81870483 139.66862427 -80.69750977 137.86401367 C-80.1318581 130.1318581 -80.1318581 130.1318581 -79 129 C-78.62943793 126.86037572 -78.31616481 124.71077652 -78.02734375 122.55859375 C-77.85009766 121.25341797 -77.67285156 119.94824219 -77.49023438 118.60351562 C-77.305899 117.21485577 -77.1216554 115.82618373 -76.9375 114.4375 C-76.74973508 113.04486976 -76.56158899 111.65229086 -76.37304688 110.25976562 C-75.9116008 106.84033189 -75.45409895 103.42041591 -75 100 C-74.34 100 -73.68 100 -73 100 C-72.96261719 99.40574219 -72.92523438 98.81148438 -72.88671875 98.19921875 C-72.12607172 88.60910029 -69.4784925 79.92308946 -66 71 C-65.32264783 69.00359361 -64.65161065 67.00495586 -64 65 C-63.34 65 -62.68 65 -62 65 C-61.90203125 64.14019531 -61.8040625 63.28039062 -61.703125 62.39453125 C-60.92802633 58.65252713 -59.61787666 56.01313258 -57.75 52.6875 C-57.12480469 51.5634375 -56.49960938 50.439375 -55.85546875 49.28125 C-55.24316406 48.1984375 -54.63085938 47.115625 -54 46 C-53.01997894 44.22963937 -52.04068164 42.45887764 -51.0625 40.6875 C-50.37591225 39.45782354 -49.68881098 38.22843249 -49 37 C-48.34 37 -47.68 37 -47 37 C-46.6596875 35.9171875 -46.6596875 35.9171875 -46.3125 34.8125 C-44.43721746 30.79403742 -41.83374594 27.8906766 -37.8125 25.9375 C-35.84873748 25.17366526 -35.84873748 25.17366526 -35.31640625 23.265625 C-33.32534756 19.8388771 -30.34210192 18.04350449 -27.125 15.8125 C-26.49980469 15.36197266 -25.87460938 14.91144531 -25.23046875 14.44726562 C-22.14406882 12.27112529 -19.74484974 10.76624758 -16 10 C-16 9.34 -16 8.68 -16 8 C-13.37964982 6.63610475 -10.75443001 5.28367827 -8.125 3.9375 C-7.37863281 3.54755859 -6.63226563 3.15761719 -5.86328125 2.75585938 C-5.14785156 2.39169922 -4.43242187 2.02753906 -3.6953125 1.65234375 C-2.7055542 1.14175415 -2.7055542 1.14175415 -1.69580078 0.62084961 C-1.13618652 0.41596924 -0.57657227 0.21108887 0 0 Z " fill="#98BC1C" transform="translate(134,50)"/>
<path d="M0 0 C1.41438406 1.57286684 2.75604401 3.21139996 4.0625 4.875 C7.15626499 8.74344771 10.29765531 12.51771846 13.625 16.1875 C14.35847656 17.00347656 15.09195313 17.81945312 15.84765625 18.66015625 C17.24173211 20.17567611 18.6650292 21.6650292 20.12109375 23.12109375 C23.40448458 26.51018731 25.42043424 28.63625707 25.4375 33.5 C25.293125 34.655 25.14875 35.81 25 37 C25.83273438 36.67644531 26.66546875 36.35289062 27.5234375 36.01953125 C31 36 31 36 32.83691406 37.35302734 C34.85935057 39.39584499 36.75208504 41.50678527 38.625 43.6875 C39.92949016 45.14991564 41.23417203 46.6121603 42.5390625 48.07421875 C43.44446777 49.10361572 43.44446777 49.10361572 44.36816406 50.15380859 C46.17286105 52.19556781 47.96239669 54.18720269 50 56 C50.66 56 51.32 56 52 56 C53.45795633 53.95379793 53.45795633 53.95379793 54.875 51.375 C57.13112869 47.48207206 59.45999343 43.7123173 62 40 C62.5775 40.350625 63.155 40.70125 63.75 41.0625 C66.35801776 42.14917407 67.39417629 41.93065133 70 41 C70.020625 39.783125 70.04125 38.56625 70.0625 37.3125 C70.07990234 36.28576172 70.07990234 36.28576172 70.09765625 35.23828125 C70.10719504 32.95248799 70.10719504 32.95248799 69.19921875 30.73828125 C68.87774136 26.31954306 71.36174465 23.45738303 73.75 19.875 C74.43449219 18.80185547 74.43449219 18.80185547 75.1328125 17.70703125 C79.36757866 11.15905468 79.36757866 11.15905468 82 9 C84.99775644 9.24471481 87.30677828 9.65338914 90 11 C90 11.66 90 12.32 90 13 C90.94875 13.309375 91.8975 13.61875 92.875 13.9375 C96 15 96 15 98 16 C98 16.66 98 17.32 98 18 C103.445 19.485 103.445 19.485 109 21 C109.33 19.35 109.66 17.7 110 16 C110.66 16 111.32 16 112 16 C111.7313393 22.04486575 111.06423007 26.21855286 107 31 C106.01 31.33 105.02 31.66 104 32 C103.67 32.99 103.34 33.98 103 35 C101.69804687 35.01417969 100.39609375 35.02835937 99.0546875 35.04296875 C97.32809034 35.08988715 95.60152893 35.13813444 93.875 35.1875 C92.59109375 35.19620117 92.59109375 35.19620117 91.28125 35.20507812 C86.98290887 35.35386686 83.90247739 35.60761144 80.46875 38.34375 C77.83181355 41.18096011 76.87035707 43.25746462 76 47 C75.34 47 74.68 47 74 47 C73.89042969 47.85722656 73.78085937 48.71445312 73.66796875 49.59765625 C73.50941406 50.74105469 73.35085938 51.88445312 73.1875 53.0625 C72.96126953 54.75052734 72.96126953 54.75052734 72.73046875 56.47265625 C71.36439523 63.06925724 68.28461012 68.52949537 64.6875 74.125 C64.32205078 74.71925781 63.95660156 75.31351562 63.58007812 75.92578125 C60.37677106 80.93820992 56.80583282 85.06472239 51 87 C46.86737506 87.63211868 43.11516587 87.81758262 39 87 C30.20070206 79.9536194 28.38299353 64.07325563 25.83764648 53.67431641 C24.09955643 46.25511876 24.09955643 46.25511876 20 40 C18.989375 39.938125 17.97875 39.87625 16.9375 39.8125 C11.37474877 39.09435794 7.40073236 35.26836115 3.44140625 31.52734375 C-0.66911866 27.70644933 -3.54014453 27.09099759 -9 27 C-11.6855594 29.6855594 -12.06049974 32.37621328 -13 36 C-13.33 36 -13.66 36 -14 36 C-14.04898438 35.31292969 -14.09796875 34.62585938 -14.1484375 33.91796875 C-14.26058594 32.56638672 -14.26058594 32.56638672 -14.375 31.1875 C-14.47941406 29.84751953 -14.47941406 29.84751953 -14.5859375 28.48046875 C-14.86645036 25.75601501 -14.86645036 25.75601501 -17 23 C-17.99 23 -18.98 23 -20 23 C-20.763125 23.99 -21.52625 24.98 -22.3125 26 C-24.62642102 28.94436058 -24.62642102 28.94436058 -27.9375 29.4375 C-30.96901077 29.00442703 -33.98700698 28.54781691 -37 28 C-37.66 28 -38.32 28 -39 28 C-39.33 35.26 -39.66 42.52 -40 50 C-41.65 50 -43.3 50 -45 50 C-46.30078125 48.42578125 -46.30078125 48.42578125 -47.3125 46.3125 C-49.96387562 41.63311294 -53.02225775 39.05189375 -58 37 C-63.21548787 36.28062236 -66.68670584 36.97151686 -71 40 C-75.5610592 45.28399365 -78.59215436 51.84988336 -81.9375 57.9375 C-93.3164337 78.63628195 -93.3164337 78.63628195 -101 83 C-106.23826461 83.82709441 -109.49289539 82.68280036 -114 80 C-114.33 79.67 -114.66 79.34 -115 79 C-115.33 80.98 -115.66 82.96 -116 85 C-116.33 85 -116.66 85 -117 85 C-117.04125 83.72125 -117.0825 82.4425 -117.125 81.125 C-117.55140459 77.14522383 -118.60174838 74.69391176 -120.8125 71.375 C-123.91055616 66.63549164 -125.28674506 61.90062406 -126.60083008 56.47167969 C-127.8647724 51.30022977 -129.66119221 46.7585743 -132 42 C-132.75760658 40.35765423 -133.50767929 38.71181116 -134.25 37.0625 C-134.75273437 35.96615234 -134.75273437 35.96615234 -135.265625 34.84765625 C-136 33 -136 33 -136 31 C-136.99 30.67 -137.98 30.34 -139 30 C-139 29.34 -139 28.68 -139 28 C-139.99 27.67 -140.98 27.34 -142 27 C-143.03635129 25.2511572 -144.06732993 23.49733209 -145.015625 21.69921875 C-145.95186058 19.87964784 -145.95186058 19.87964784 -147.75 18.4375 C-149.73559696 16.1540635 -149.19291348 13.89370226 -149 11 C-146.63554179 9.51126706 -145.26095932 8.99363514 -142.4375 9.0625 C-139.1798295 10.31545019 -138.44093012 11.89062447 -137 15 C-137 15.66 -137 16.32 -137 17 C-136.34 17 -135.68 17 -135 17 C-133.6875 18.875 -133.6875 18.875 -132 22 C-131.56945312 22.73992187 -131.13890625 23.47984375 -130.6953125 24.2421875 C-127.42224735 30.17808531 -126.45464285 34.23757136 -127 41 C-125.02 41 -123.04 41 -121 41 C-117 47.75 -117 47.75 -117 50 C-116.34 50 -115.68 50 -115 50 C-114.01 51.98 -113.02 53.96 -112 56 C-108.52091896 55.42537701 -106.97942201 54.30773917 -104.6171875 51.7265625 C-104.00746094 51.0665625 -103.39773437 50.4065625 -102.76953125 49.7265625 C-102.14433594 49.03304687 -101.51914063 48.33953125 -100.875 47.625 C-100.24207031 46.93921875 -99.60914063 46.2534375 -98.95703125 45.546875 C-96.41305649 42.77064777 -94.0938618 40.14079269 -92 37 C-91.34 37 -90.68 37 -90 37 C-90 39.64 -90 42.28 -90 45 C-88.35 44.34 -86.7 43.68 -85 43 C-85.13921875 42.22398437 -85.2784375 41.44796875 -85.421875 40.6484375 C-85.9672155 35.20801677 -85.97661169 30.91081159 -82.6796875 26.40625 C-80.15002234 23.34907972 -77.42162773 20.48970702 -74.63378906 17.66796875 C-72.16588597 15.14843588 -69.84608257 12.50821507 -67.5 9.875 C-66.00992991 8.2408898 -64.5108796 6.61488942 -63 5 C-61.95585937 3.85144531 -61.95585937 3.85144531 -60.890625 2.6796875 C-60.26671875 2.12539063 -59.6428125 1.57109375 -59 1 C-56.25 1.25 -56.25 1.25 -54 2 C-54 2.66 -54 3.32 -54 4 C-53.484375 4.226875 -52.96875 4.45375 -52.4375 4.6875 C-49.66221374 6.18188491 -47.22673294 7.97018824 -44.68359375 9.82421875 C-42.86886554 11.09158114 -41.02609604 12.10851774 -39 13 C-39 13.66 -39 14.32 -39 15 C-38.4225 15.268125 -37.845 15.53625 -37.25 15.8125 C-35 17 -35 17 -33 18.6875 C-31.14216288 20.20467362 -31.14216288 20.20467362 -29.1796875 19.828125 C-26.2961715 18.73259562 -24.45829942 17.08020117 -22.125 15.0625 C-17.68235409 11.33331544 -13.14981357 7.81971524 -8.4375 4.4375 C-7.82986816 3.99607666 -7.22223633 3.55465332 -6.59619141 3.09985352 C-2.24420155 0 -2.24420155 0 0 0 Z " fill="#EC2649" transform="translate(226,287)"/>
<path d="M0 0 C2.97 0.33 5.94 0.66 9 1 C9 1.66 9 2.32 9 3 C9.639375 3.268125 10.27875 3.53625 10.9375 3.8125 C13 5 13 5 14 8 C14.0685495 9.89470816 14.08480372 11.7916834 14.0625 13.6875 C14.05347656 14.68136719 14.04445313 15.67523438 14.03515625 16.69921875 C14.02355469 17.45847656 14.01195312 18.21773437 14 19 C16.7579234 19 18.46997758 18.97543033 21 18 C22.81759002 16.05677011 24.21435671 14.0560681 25.640625 11.8125 C27 10 27 10 30 9 C34.56187786 8.74656234 37.87151072 8.99830823 42 11 C42 11.66 42 12.32 42 13 C43.175625 13.3403125 43.175625 13.3403125 44.375 13.6875 C47 15 47 15 48.3125 17 C49.65241633 22.84690762 50.1803906 29.699349 47 35 C44.33659338 38.4467615 42.26743532 40.25923764 38 41 C31.32872508 41 27.82857333 37.15481891 23 33 C21.71875 35.84375 21.71875 35.84375 22.6875 38.0625 C23.85669943 40.15122078 23.85669943 40.15122078 26.0625 40.9375 C26.701875 41.288125 27.34125 41.63875 28 42 C28.75 44.625 28.75 44.625 29 47 C29.66 47 30.32 47 31 47 C32.06929502 55.58830605 32.06929502 55.58830605 29.51171875 58.96484375 C27.13079212 60.98099073 24.78938171 62.60530915 22 64 C22.680625 64.495 23.36125 64.99 24.0625 65.5 C27.17683046 68.15049401 29.71127842 71.00259037 32.359375 74.10546875 C33.61908557 75.56013453 34.95181575 76.95181575 36.3125 78.3125 C38.87395364 80.87395364 40 82.31840509 40 86 C41.485 86.495 41.485 86.495 43 87 C44.1875 90.5625 44.1875 90.5625 45 94 C45.66 94 46.32 94 47 94 C47.99 97.3 48.98 100.6 50 104 C50.66 104 51.32 104 52 104 C52.50559908 105.43554025 53.0042749 106.8735202 53.5 108.3125 C53.7784375 109.11300781 54.056875 109.91351563 54.34375 110.73828125 C55 113 55 113 55 116 C55.66 116 56.32 116 57 116 C57.25394531 116.90621094 57.50789063 117.81242187 57.76953125 118.74609375 C58.11371094 119.96425781 58.45789063 121.18242188 58.8125 122.4375 C59.14894531 123.63246094 59.48539062 124.82742187 59.83203125 126.05859375 C60.64789312 128.88782701 61.55796422 131.67139576 62.51171875 134.45703125 C68.20347214 151.40272891 69.37260921 169.31389351 71 187 C71.17055127 188.81144706 71.3434649 190.62267442 71.51953125 192.43359375 C71.58889893 193.15474365 71.6582666 193.87589355 71.72973633 194.61889648 C71.93733511 196.44790361 72.20429255 198.27024967 72.49658203 200.08764648 C73.14293107 205.11080037 73.34319835 210.10582283 73.53515625 215.1640625 C73.57813339 216.23312836 73.62111053 217.30219421 73.66539001 218.40365601 C73.75530344 220.66112549 73.84344762 222.91866606 73.92993164 225.17626953 C74.06126896 228.59297485 74.19913435 232.00937008 74.33789062 235.42578125 C75.17682418 256.5293892 75.17682418 256.5293892 75 267 C72.83125748 266.49396008 71.00032373 266.00016187 69 265 C65.25784202 255.66177092 65.65684752 245.85162759 66 236 C66.03673828 234.93475098 66.07347656 233.86950195 66.11132812 232.77197266 C66.28305157 227.88398748 66.45923155 222.99616864 66.63696289 218.10839844 C66.91656897 210.17644253 67.13491152 202.24941616 67.1875 194.3125 C67.20039063 193.41192871 67.21328125 192.51135742 67.2265625 191.58349609 C67.24024184 182.49528356 65.4046721 174.38464025 62 166 C61.49686009 164.64699682 60.99686411 163.29282041 60.5 161.9375 C59.54279956 159.37661296 58.52146213 156.88979214 57.4375 154.375 C56.11821143 151.27753988 55.04426998 148.19807682 54 145 C53.25556641 143.24236328 53.25556641 143.24236328 52.49609375 141.44921875 C50.66970539 136.60192422 50.3799058 131.88349112 50.0625 126.75 C49.50845092 119.64062995 48.59682867 113.33821059 46.00390625 106.640625 C44.93648814 103.83294157 44.21344574 101.04116074 43.5 98.125 C42.33564616 93.66700435 40.73272869 90.67504893 38 87 C38 86.34 38 85.68 38 85 C37.34 85 36.68 85 36 85 C35.1273108 83.59822396 34.3290225 82.15003402 33.5625 80.6875 C27.91597917 71.0253709 20.25206674 63.92730579 10.1171875 59.21875 C8 58 8 58 7 55 C3.48809191 53.77030122 3.48809191 53.77030122 0 53 C0 52.34 0 51.68 0 51 C-0.86625 50.731875 -1.7325 50.46375 -2.625 50.1875 C-6 49 -6 49 -8.5625 47.5625 C-13.06490247 45.51595342 -17.53236072 44.70082978 -22.375 43.8125 C-25.55125 43.214375 -28.7275 42.61625 -32 42 C-31.67 35.4 -31.34 28.8 -31 22 C-24.30493411 23.11584432 -24.30493411 23.11584432 -20.9375 27.4375 C-18.20874063 30.91401756 -16.31364296 32.80728766 -12 34 C-9.6565477 34.14150388 -9.6565477 34.14150388 -7.375 33.8125 C-6.61960937 33.73644531 -5.86421875 33.66039062 -5.0859375 33.58203125 C-2.62388164 32.89505312 -1.7150908 31.83901354 0 30 C0.66 30 1.32 30 2 30 C2.33 25.38 2.66 20.76 3 16 C4.65 16 6.3 16 8 16 C6.88276969 10.5255715 5.10270472 7.51646403 1.2421875 3.48046875 C0 2 0 2 0 0 Z " fill="#417701" transform="translate(268,5)"/>
<path d="M0 0 C0.99 0.33 1.98 0.66 3 1 C4.69031755 6.07095266 4.26505412 11.44976871 4.29516602 16.75683594 C4.30657634 18.1511458 4.3268502 19.54541589 4.35668945 20.93945312 C4.56324805 30.60501087 3.38716085 38.85011113 0 48 C-0.58819337 49.76922498 -1.17205665 51.53990023 -1.75 53.3125 C-2.1625 54.529375 -2.575 55.74625 -3 57 C-3.66 57 -4.32 57 -5 57 C-5.10957031 57.63808594 -5.21914063 58.27617187 -5.33203125 58.93359375 C-5.56986328 60.17302734 -5.56986328 60.17302734 -5.8125 61.4375 C-6.03873047 62.67306641 -6.03873047 62.67306641 -6.26953125 63.93359375 C-6.51058594 64.61550781 -6.75164062 65.29742187 -7 66 C-8.485 66.495 -8.485 66.495 -10 67 C-10.61067144 68.85744207 -10.61067144 68.85744207 -11 71 C-11.63654342 72.3479743 -12.29605388 73.68596724 -13 75 C-13.66 75 -14.32 75 -15 75 C-15.2475 75.845625 -15.495 76.69125 -15.75 77.5625 C-16.88445078 80.68223965 -18.28529739 83.34316753 -19.98046875 86.1875 C-21.57698017 89.02574252 -22.77021651 91.98703045 -24 95 C-24.66 95 -25.32 95 -26 95 C-26.33 90.71 -26.66 86.42 -27 82 C-30.7822814 86.42066579 -30.7822814 86.42066579 -32.3125 89.4375 C-34.29123813 92.44225049 -36.58128806 94.34425071 -39.37890625 96.5703125 C-41.25086359 98.09773544 -41.25086359 98.09773544 -43 101 C-46.035651 102.92257897 -47.21850924 103 -51 103 C-51.24042276 98.91281305 -50.42258812 95.82320557 -49 92 C-51.0245738 93.93254772 -52.42105792 95.63158688 -54 98 C-54.66 98 -55.32 98 -56 98 C-56.2475 98.639375 -56.495 99.27875 -56.75 99.9375 C-58.32987939 102.544301 -59.16780311 102.29195078 -62 103 C-62.4640625 103.99 -62.4640625 103.99 -62.9375 105 C-63.288125 105.66 -63.63875 106.32 -64 107 C-66.625 107.75 -66.625 107.75 -69 108 C-69 108.66 -69 109.32 -69 110 C-69.99 110 -70.98 110 -72 110 C-72.28875 110.804375 -72.5775 111.60875 -72.875 112.4375 C-74 115 -74 115 -76 116 C-74.69185445 112.60319967 -73.22505198 109.38117642 -71.5390625 106.15625 C-65.86841941 95.16688784 -61.24043098 84.91669014 -58.22265625 72.90625 C-56.74405624 69.39162249 -54.99540272 68.29766054 -52 66 C-49.80649675 63.01083408 -49.80649675 63.01083408 -47.875 59.6875 C-47.21242188 58.59824219 -46.54984375 57.50898438 -45.8671875 56.38671875 C-42.76128572 50.75321071 -40.67312559 45.34729441 -39.3125 39.0625 C-39.06113281 37.91910156 -38.80976563 36.77570313 -38.55078125 35.59765625 C-38.36902344 34.74042969 -38.18726563 33.88320313 -38 33 C-37.34 33 -36.68 33 -36 33 C-35.979375 32.13375 -35.95875 31.2675 -35.9375 30.375 C-34.63414798 25.68293274 -32.16349809 23.45119562 -28 21 C-24.76985887 20.29690606 -21.66895251 20.33713738 -18.375 20.4375 C-11.72510783 20.73022497 -11.72510783 20.73022497 -6.02734375 17.68359375 C-1.8995926 12.21969194 -0.72859436 7.78514097 -1 1 C-0.67 0.67 -0.34 0.34 0 0 Z " fill="#4B000D" transform="translate(338,301)"/>
<path d="M0 0 C0.33 2.31 0.66 4.62 1 7 C1.99 7.33 2.98 7.66 4 8 C4.95271373 9.68312759 5.90304911 11.37074612 6.7421875 13.11328125 C7.97212219 15.19030408 7.97212219 15.19030408 10.40625 16.7734375 C13.60037118 19.51537887 15.00383353 22.52602553 16.625 26.3125 C17.05425781 27.2705957 17.05425781 27.2705957 17.4921875 28.24804688 C18.06387045 29.53043567 18.62732475 30.81652532 19.18237305 32.10620117 C19.97296024 33.93737014 20.79649394 35.75420593 21.62109375 37.5703125 C22.96692241 40.91772769 23.75267133 44.02776319 24.4375 47.5625 C25.55193525 52.67717126 26.76784176 55.9337364 30 60 C31.83429912 63.10830323 32.33561235 65.74580626 32.75 69.3125 C35.10038891 84.11456758 42.93910433 97.28651158 50.76953125 109.8359375 C52 112 52 112 52 114 C50.02 113.01 50.02 113.01 48 112 C48 111.34 48 110.68 48 110 C47.30132812 109.81824219 46.60265625 109.63648438 45.8828125 109.44921875 C44.97273438 109.19785156 44.06265625 108.94648438 43.125 108.6875 C42.22007813 108.44386719 41.31515625 108.20023437 40.3828125 107.94921875 C38 107 38 107 36 104 C35.36320312 103.68160156 34.72640625 103.36320312 34.0703125 103.03515625 C31.67189123 101.83594562 30.53774582 100.52246138 28.875 98.4375 C26.79096366 95.78974334 26.79096366 95.78974334 24 94 C24.020625 94.94875 24.04125 95.8975 24.0625 96.875 C24 100 24 100 23 102 C19.73810844 101.4376049 18.08865152 100.5859495 16 98 C15.67 97.01 15.34 96.02 15 95 C14.34 94.505 13.68 94.01 13 93.5 C11 92 11 92 10 89 C9.00569787 87.99433441 8.00479608 86.99518081 7 86 C5.9131474 84.40486807 4.87398227 82.77658375 3.875 81.125 C3.35679688 80.28195312 2.83859375 79.43890625 2.3046875 78.5703125 C1.00269721 76.00531367 0.41624128 73.83247112 0 71 C-0.66 71 -1.32 71 -2 71 C-2.50757862 69.58603098 -3.00574925 68.16868271 -3.5 66.75 C-3.91765625 65.56664062 -3.91765625 65.56664062 -4.34375 64.359375 C-5 62 -5 62 -5 58 C-5.66 58 -6.32 58 -7 58 C-7.495 60.475 -7.495 60.475 -8 63 C-9.32 63 -10.64 63 -12 63 C-12.67449966 60.60612843 -13.33976641 58.21030779 -14 55.8125 C-14.19078125 55.13896484 -14.3815625 54.46542969 -14.578125 53.77148438 C-15.5825836 50.09444844 -16.23704741 46.8149818 -16 43 C-16.66 43 -17.32 43 -18 43 C-19.42033442 31.92900046 -20.2964981 21.16809528 -20 10 C-18.21046815 9.16209211 -16.41830305 8.32980604 -14.625 7.5 C-13.12839844 6.80390625 -13.12839844 6.80390625 -11.6015625 6.09375 C-9 5 -9 5 -7 5 C-7 4.34 -7 3.68 -7 3 C-1.125 0 -1.125 0 0 0 Z " fill="#4B000D" transform="translate(77,299)"/>
<path d="M0 0 C2.75 0.25 2.75 0.25 5 1 C5 1.66 5 2.32 5 3 C5.556875 3.226875 6.11375 3.45375 6.6875 3.6875 C9.63246684 5.35896766 11.68156544 7.55276352 14 10 C13.34 10.33 12.68 10.66 12 11 C11.76410156 11.70125 11.52820313 12.4025 11.28515625 13.125 C9.15405712 17.89244365 5.26651745 21.16902638 1.61132812 24.828125 C-1.693917 28.24094825 -3.27482115 30.20000667 -4 35 C-5.63671875 36.046875 -5.63671875 36.046875 -7.6875 36.75 C-16.32957216 40.69629136 -19.87636849 51.37066817 -24.25073242 59.32568359 C-34.41381044 77.691585 -34.41381044 77.691585 -42 82 C-47.23826461 82.82709441 -50.49289539 81.68280036 -55 79 C-55.33 78.67 -55.66 78.34 -56 78 C-56.33 79.98 -56.66 81.96 -57 84 C-57.33 84 -57.66 84 -58 84 C-58.04125 82.72125 -58.0825 81.4425 -58.125 80.125 C-58.55140459 76.14522383 -59.60174838 73.69391176 -61.8125 70.375 C-64.91055616 65.63549164 -66.28674506 60.90062406 -67.60083008 55.47167969 C-68.8647724 50.30022977 -70.66119221 45.7585743 -73 41 C-73.75760658 39.35765423 -74.50767929 37.71181116 -75.25 36.0625 C-75.75273438 34.96615234 -75.75273438 34.96615234 -76.265625 33.84765625 C-77 32 -77 32 -77 30 C-77.99 29.67 -78.98 29.34 -80 29 C-80 28.34 -80 27.68 -80 27 C-80.99 26.67 -81.98 26.34 -83 26 C-84.03635129 24.2511572 -85.06732993 22.49733209 -86.015625 20.69921875 C-86.95186058 18.87964784 -86.95186058 18.87964784 -88.75 17.4375 C-90.73559696 15.1540635 -90.19291348 12.89370226 -90 10 C-87.63554179 8.51126706 -86.26095932 7.99363514 -83.4375 8.0625 C-80.1798295 9.31545019 -79.44093012 10.89062447 -78 14 C-78 14.66 -78 15.32 -78 16 C-77.34 16 -76.68 16 -76 16 C-74.6875 17.875 -74.6875 17.875 -73 21 C-72.56945312 21.73992187 -72.13890625 22.47984375 -71.6953125 23.2421875 C-68.42224735 29.17808531 -67.45464285 33.23757136 -68 40 C-66.02 40 -64.04 40 -62 40 C-58 46.75 -58 46.75 -58 49 C-57.34 49 -56.68 49 -56 49 C-55.01 50.98 -54.02 52.96 -53 55 C-49.52091896 54.42537701 -47.97942201 53.30773917 -45.6171875 50.7265625 C-45.00746094 50.0665625 -44.39773437 49.4065625 -43.76953125 48.7265625 C-43.14433594 48.03304687 -42.51914063 47.33953125 -41.875 46.625 C-41.24207031 45.93921875 -40.60914063 45.2534375 -39.95703125 44.546875 C-37.41305649 41.77064777 -35.0938618 39.14079269 -33 36 C-32.34 36 -31.68 36 -31 36 C-31 38.64 -31 41.28 -31 44 C-29.35 43.34 -27.7 42.68 -26 42 C-26.13921875 41.22398437 -26.2784375 40.44796875 -26.421875 39.6484375 C-26.9672155 34.20801677 -26.97661169 29.91081159 -23.6796875 25.40625 C-21.15002234 22.34907972 -18.42162773 19.48970702 -15.63378906 16.66796875 C-13.16588597 14.14843588 -10.84608257 11.50821507 -8.5 8.875 C-7.00992991 7.2408898 -5.5108796 5.61488942 -4 4 C-2.95585937 2.85144531 -2.95585937 2.85144531 -1.890625 1.6796875 C-1.26671875 1.12539063 -0.6428125 0.57109375 0 0 Z " fill="#EC2649" transform="translate(167,288)"/>
<path d="M0 0 C1.41438406 1.57286684 2.75604401 3.21139996 4.0625 4.875 C7.15626499 8.74344771 10.29765531 12.51771846 13.625 16.1875 C14.35847656 16.99832031 15.09195313 17.80914062 15.84765625 18.64453125 C17.26227934 20.19265779 18.68653297 21.73204897 20.12109375 23.26171875 C20.76175781 23.95910156 21.40242188 24.65648437 22.0625 25.375 C22.63097656 25.98085938 23.19945312 26.58671875 23.78515625 27.2109375 C25 29 25 29 25 33 C24.34 33 23.68 33 23 33 C22.5359375 33.928125 22.5359375 33.928125 22.0625 34.875 C21.375 36.25 20.6875 37.625 20 39 C15.22124594 39.59734426 12.82562559 39.24170444 8.9375 36.3125 C7.03854381 34.77438193 5.21523996 33.20391154 3.44140625 31.5234375 C-0.67436806 27.7088174 -3.53890463 27.09101826 -9 27 C-11.6855594 29.6855594 -12.06049974 32.37621328 -13 36 C-13.33 36 -13.66 36 -14 36 C-14.04898438 35.31292969 -14.09796875 34.62585938 -14.1484375 33.91796875 C-14.22320312 33.01691406 -14.29796875 32.11585938 -14.375 31.1875 C-14.47941406 29.84751953 -14.47941406 29.84751953 -14.5859375 28.48046875 C-14.86645036 25.75601501 -14.86645036 25.75601501 -17 23 C-17.99 23 -18.98 23 -20 23 C-20.763125 23.99 -21.52625 24.98 -22.3125 26 C-24.62642102 28.94436058 -24.62642102 28.94436058 -27.9375 29.4375 C-30.96901077 29.00442703 -33.98700698 28.54781691 -37 28 C-37.66 28 -38.32 28 -39 28 C-39.33 35.26 -39.66 42.52 -40 50 C-41.65 50 -43.3 50 -45 50 C-46.30078125 48.42578125 -46.30078125 48.42578125 -47.3125 46.3125 C-50.63145895 40.41560752 -55.29900003 38.01287499 -61.5 35.6875 C-62.325 35.460625 -63.15 35.23375 -64 35 C-62.29336939 29.0717042 -57.90311123 25.43960099 -53.69921875 21.171875 C-50.52255874 17.87331156 -48.59933309 15.35018601 -47 11 C-44 10 -44 10 -41.3125 11.3125 C-40.549375 11.869375 -39.78625 12.42625 -39 13 C-39 13.66 -39 14.32 -39 15 C-38.4225 15.268125 -37.845 15.53625 -37.25 15.8125 C-35 17 -35 17 -33 18.6875 C-31.14216288 20.20467362 -31.14216288 20.20467362 -29.1796875 19.828125 C-26.2961715 18.73259562 -24.45829942 17.08020117 -22.125 15.0625 C-17.68235409 11.33331544 -13.14981357 7.81971524 -8.4375 4.4375 C-7.82986816 3.99607666 -7.22223633 3.55465332 -6.59619141 3.09985352 C-2.24420155 0 -2.24420155 0 0 0 Z " fill="#F46475" transform="translate(226,287)"/>
<path d="M0 0 C0.45332096 10.10737842 -0.19897687 20.13131461 -4.0625 29.60546875 C-5.03094601 32.07904127 -5.38883817 34.17535962 -5.625 36.8125 C-5.69976562 37.60269531 -5.77453125 38.39289063 -5.8515625 39.20703125 C-5.90054688 39.79871094 -5.94953125 40.39039063 -6 41 C-7.32 40.67 -8.64 40.34 -10 40 C-10.52787109 40.97839844 -10.52787109 40.97839844 -11.06640625 41.9765625 C-13.99048306 47.15286557 -16.71859552 51.15029166 -21.484375 54.74609375 C-23.28115348 56.11027246 -23.28115348 56.11027246 -25 59 C-28.035651 60.92257897 -29.21850924 61 -33 61 C-33.24042276 56.91281305 -32.42258812 53.82320557 -31 50 C-33.0245738 51.93254772 -34.42105792 53.63158688 -36 56 C-36.66 56 -37.32 56 -38 56 C-38.2475 56.639375 -38.495 57.27875 -38.75 57.9375 C-40.32987939 60.544301 -41.16780311 60.29195078 -44 61 C-44.309375 61.66 -44.61875 62.32 -44.9375 63 C-45.288125 63.66 -45.63875 64.32 -46 65 C-48.625 65.75 -48.625 65.75 -51 66 C-51 66.66 -51 67.32 -51 68 C-51.99 68 -52.98 68 -54 68 C-54.28875 68.804375 -54.5775 69.60875 -54.875 70.4375 C-56 73 -56 73 -58 74 C-56.69185445 70.60319967 -55.22505198 67.38117642 -53.5390625 64.15625 C-48.41808056 54.23209779 -43.79096297 44.84488468 -41 34 C-40.10546875 30.7421875 -40.10546875 30.7421875 -39 28 C-35.875 26.625 -35.875 26.625 -33 26 C-33 26.66 -33 27.32 -33 28 C-31.14375 27.5359375 -31.14375 27.5359375 -29.25 27.0625 C-26.5 26.375 -23.75 25.6875 -21 25 C-20.814375 24.0409375 -20.814375 24.0409375 -20.625 23.0625 C-20.41875 22.381875 -20.2125 21.70125 -20 21 C-19.34 20.67 -18.68 20.34 -18 20 C-17.30712962 17.91964662 -17.30712962 17.91964662 -16.75 15.4375 C-14.29686552 6.7138534 -9.67555578 -0.4300247 0 0 Z " fill="#020101" transform="translate(320,343)"/>
<path d="M0 0 C4.08272121 1.36090707 5.61725803 3.91593092 8.28125 7.1875 C9.96771124 9.25078906 9.96771124 9.25078906 13 10 C12.67 6.7 12.34 3.4 12 0 C15.03801482 1.51900741 15.61416491 3.98233868 17.0625 7 C18.660185 10.74568854 18.660185 10.74568854 21 14 C21.25182677 15.70514029 21.47539362 17.4144647 21.6875 19.125 C24.11604041 34.01300861 31.88478024 47.19944912 39.76953125 59.8359375 C41 62 41 62 41 64 C39.68 63.34 38.36 62.68 37 62 C37 61.34 37 60.68 37 60 C36.30132812 59.81824219 35.60265625 59.63648438 34.8828125 59.44921875 C33.51769531 59.07216797 33.51769531 59.07216797 32.125 58.6875 C31.22007813 58.44386719 30.31515625 58.20023437 29.3828125 57.94921875 C27 57 27 57 25 54 C24.36320312 53.68160156 23.72640625 53.36320312 23.0703125 53.03515625 C20.67189123 51.83594562 19.53774582 50.52246138 17.875 48.4375 C15.79096366 45.78974334 15.79096366 45.78974334 13 44 C13 45.98 13 47.96 13 50 C3.46721423 38.88184813 -1.19813002 23.7053676 -1.125 9.25 C-1.12886719 8.47011719 -1.13273437 7.69023437 -1.13671875 6.88671875 C-1.12670133 1.12670133 -1.12670133 1.12670133 0 0 Z " fill="#040101" transform="translate(88,349)"/>
<path d="M0 0 C0.75097435 1.79125849 1.50071462 3.58303436 2.25 5.375 C2.71148437 6.47070312 3.17296875 7.56640625 3.6484375 8.6953125 C4.4660465 10.69443739 5.25196017 12.70750416 5.9765625 14.7421875 C7.9796423 20.33339285 10.45203779 24.14410597 14.609375 28.40625 C16 30 16 30 16 32 C7.75 32 -0.5 32 -9 32 C-9.33 28.7 -9.66 25.4 -10 22 C-10.66 21.01 -11.32 20.02 -12 19 C-12.76020201 16.87198926 -13.46286119 14.72303442 -14.125 12.5625 C-14.47820312 11.42941406 -14.83140625 10.29632813 -15.1953125 9.12890625 C-16 6 -16 6 -16 2 C-10.51324804 0.13216954 -5.77807024 -0.2358396 0 0 Z " fill="#FCD44E" transform="translate(187,13)"/>
<path d="M0 0 C2.8125 1.6875 2.8125 1.6875 5 4 C5.8125 7.75 5.8125 7.75 6 11 C6.66 11 7.32 11 8 11 C8.06058594 11.69867188 8.12117188 12.39734375 8.18359375 13.1171875 C8.26738281 14.02726562 8.35117188 14.93734375 8.4375 15.875 C8.51871094 16.77992187 8.59992188 17.68484375 8.68359375 18.6171875 C8.86989285 21.01110861 8.86989285 21.01110861 10 23 C10.99 23.33 11.98 23.66 13 24 C13.12375 24.78375 13.2475 25.5675 13.375 26.375 C13.79117993 29.14057822 13.79117993 29.14057822 16 31 C8.92374728 31.61002179 8.92374728 31.61002179 4.6875 28.8125 C1.17503046 25.13665979 -0.63773612 22.44905552 -1.875 17.5 C-3.4543168 12.58656997 -6.24230566 10.44751299 -10.125 7.25 C-14.58196945 5.31218719 -19.18548624 5.24451996 -24 5 C-17.75333773 -2.93494937 -9.51221082 -4.4242841 0 0 Z " fill="#427702" transform="translate(245,2)"/>
<path d="M0 0 C2.31 0 4.62 0 7 0 C7 0.66 7 1.32 7 2 C7.66 2 8.32 2 9 2 C11.50017232 8.17230041 13.40550894 13.24151766 13 20 C13.28520405 21.67557379 13.59955696 23.34817245 14 25 C14.66 25 15.32 25 16 25 C17.03789581 26.64333504 18.03567924 28.31243867 19 30 C19.66 30.66 20.32 31.32 21 32 C17.94771517 32.29348893 15.04468467 32.41614202 12 32 C5.43032588 26.12187053 4.25752799 17.75498772 2.94140625 9.4609375 C1.93969867 5.77831128 0.92412988 4.36572314 -2 2 C-1.34 2 -0.68 2 0 2 C0 1.34 0 0.68 0 0 Z " fill="#457A03" transform="translate(203,11)"/>
<path d="M0 0 C0 0.66 0 1.32 0 2 C0.99 2.33 1.98 2.66 3 3 C2.01 3.495 2.01 3.495 1 4 C0.34 3.67 -0.32 3.34 -1 3 C-0.67 3.99 -0.34 4.98 0 6 C0.1875 9.5625 0.1875 9.5625 0 13 C-0.66 13.66 -1.32 14.32 -2 15 C-3.32 15 -4.64 15 -6 15 C-6.66 12.03 -7.32 9.06 -8 6 C-9.98 7.98 -11.96 9.96 -14 12 C-14.66 11.67 -15.32 11.34 -16 11 C-14.54601271 9.18401175 -13.08667675 7.37230481 -11.625 5.5625 C-10.40683594 4.04849609 -10.40683594 4.04849609 -9.1640625 2.50390625 C-5.89942235 -1.27341205 -4.67252758 -1.10665127 0 0 Z " fill="#C63039" transform="translate(172,289)"/>
<path d="M0 0 C2.14336161 3.4766338 2.21277626 6.21229195 2.125 10.25 C2.10695313 11.32765625 2.08890625 12.4053125 2.0703125 13.515625 C2.04710937 14.33546875 2.02390625 15.1553125 2 16 C-0.375 16.125 -0.375 16.125 -3 16 C-5.60186108 13.39813892 -5.29810177 12.17645645 -5.3125 8.5625 C-5.32925781 7.59441406 -5.34601563 6.62632812 -5.36328125 5.62890625 C-5 3 -5 3 -3.60546875 1.15234375 C-2 0 -2 0 0 0 Z " fill="#2F070E" transform="translate(273,350)"/>
<path d="M0 0 C2.16721782 3.25082673 2.27221018 4.29232153 2.25 8.0625 C2.25515625 8.94035156 2.2603125 9.81820313 2.265625 10.72265625 C2 13 2 13 0 15 C-1.32 15 -2.64 15 -4 15 C-5.72107623 7.33183857 -5.72107623 7.33183857 -3.953125 4.06640625 C-2.5625 2.4375 -2.5625 2.4375 0 0 Z " fill="#1D0A07" transform="translate(140,317)"/>
<path d="M0 0 C0.99 0 1.98 0 3 0 C4.11445498 2.22890995 4.16480286 3.53055106 4.1875 6 C4.20167969 6.70125 4.21585937 7.4025 4.23046875 8.125 C4 10 4 10 2 12 C-0.125 11.625 -0.125 11.625 -2 11 C-2.95465783 8.83032311 -3.14401212 7.43671207 -2.3984375 5.17578125 C-1.64129615 3.4315257 -0.82390802 1.71372869 0 0 Z " fill="#1F0A08" transform="translate(293,318)"/>
<path d="M0 0 C0.99 0.33 1.98 0.66 3 1 C4.47666292 4.49029418 4.07164685 8.27436386 4 12 C2.35 12.33 0.7 12.66 -1 13 C-2.5121867 9.97562661 -2.17263369 7.33758466 -2 4 C-1 1.5625 -1 1.5625 0 0 Z " fill="#200409" transform="translate(167,291)"/>
<path d="M0 0 C0.33 0 0.66 0 1 0 C1 16.5 1 33 1 50 C0.01 49.67 -0.98 49.34 -2 49 C-1.67 48.01 -1.34 47.02 -1 46 C-0.88599048 44.48165793 -0.82387323 42.95910409 -0.79467773 41.43676758 C-0.7647599 40.05567558 -0.7647599 40.05567558 -0.73423767 38.64668274 C-0.71752518 37.65597275 -0.70081268 36.66526276 -0.68359375 35.64453125 C-0.66281265 34.62775803 -0.64203156 33.6109848 -0.62062073 32.56340027 C-0.55519952 29.31316937 -0.49627463 26.06285723 -0.4375 22.8125 C-0.39430773 20.61001762 -0.35069321 18.40754347 -0.30664062 16.20507812 C-0.19952573 10.80347147 -0.09774543 5.40178388 0 0 Z " fill="#7DA614" transform="translate(85,228)"/>
<path d="M0 0 C0.99 0.33 1.98 0.66 3 1 C3 1.66 3 2.32 3 3 C3.66 3 4.32 3 5 3 C5 5.31 5 7.62 5 10 C3.68 10.33 2.36 10.66 1 11 C-1.43769218 7.34346173 -1.23944439 5.30999899 -1 1 C-0.67 0.67 -0.34 0.34 0 0 Z " fill="#360810" transform="translate(115,351)"/>
<path d="M0 0 C0 0.66 0 1.32 0 2 C2.64 2 5.28 2 8 2 C8 2.33 8 2.66 8 3 C-2.23 3 -12.46 3 -23 3 C-23 2.67 -23 2.34 -23 2 C-20.29215006 1.66227261 -17.58383004 1.32969313 -14.875 1 C-14.11445313 0.90460937 -13.35390625 0.80921875 -12.5703125 0.7109375 C-8.35090048 0.20169812 -4.25995656 -0.10888068 0 0 Z " fill="#77A013" transform="translate(222,43)"/>
<path d="M0 0 C0.66 0 1.32 0 2 0 C2 2.31 2 4.62 2 7 C1.67 6.34 1.34 5.68 1 5 C-3.85743929 9.16704183 -8.53019508 13.41844996 -13 18 C-13.66 17.67 -14.32 17.34 -15 17 C-14.16855469 16.10796875 -13.33710937 15.2159375 -12.48046875 14.296875 C-11.38271261 13.11467608 -10.2850619 11.93237926 -9.1875 10.75 C-8.64029297 10.16347656 -8.09308594 9.57695312 -7.52929688 8.97265625 C-5.30089679 6.56868525 -3.16882525 4.23208793 -1.23828125 1.578125 C-0.82964844 1.05734375 -0.42101562 0.5365625 0 0 Z " fill="#C42D39" transform="translate(134,324)"/>
<path d="M0 0 C0.66 0 1.32 0 2 0 C3.625 2.5 3.625 2.5 5 5 C4.34 5.66 3.68 6.32 3 7 C0.875 6.625 0.875 6.625 -1 6 C-0.67 4.02 -0.34 2.04 0 0 Z " fill="#170A07" transform="translate(251,318)"/>
<path d="M0 0 C0 0.66 0 1.32 0 2 C-3.12180401 2.96661363 -5.52083795 2.98988909 -8.75 2.5625 C-9.94882813 2.40974609 -9.94882813 2.40974609 -11.171875 2.25390625 C-11.77515625 2.17011719 -12.3784375 2.08632813 -13 2 C-13 1.67 -13 1.34 -13 1 C-8.59085217 -0.10228696 -4.51617599 -0.07654536 0 0 Z " fill="#66940D" transform="translate(172,45)"/>
<path d="M0 0 C0.66 0 1.32 0 2 0 C1.67 2.97 1.34 5.94 1 9 C0.67 8.01 0.34 7.02 0 6 C-1.65 6 -3.3 6 -5 6 C-3.68 5.67 -2.36 5.34 -1 5 C-0.67 3.35 -0.34 1.7 0 0 Z " fill="#A3292C" transform="translate(336,303)"/>
<path d="M0 0 C2.475 0.495 2.475 0.495 5 1 C5.33 1.66 5.66 2.32 6 3 C4.68 2.67 3.36 2.34 2 2 C2.33 2.99 2.66 3.98 3 5 C3.03954234 7.33299825 3.04401732 9.66708189 3 12 C2.67 12 2.34 12 2 12 C1.34 8.04 0.68 4.08 0 0 Z " fill="#BA1F38" transform="translate(169,290)"/>
<path d="M0 0 C0.66 0.33 1.32 0.66 2 1 C-0.64 3.64 -3.28 6.28 -6 9 C-6 6 -6 6 -3.5625 3.375 C-2.716875 2.59125 -1.87125 1.8075 -1 1 C-0.67 0.67 -0.34 0.34 0 0 Z " fill="#110002" transform="translate(314,343)"/>
<path d="M0 0 C1.5 1.1875 1.5 1.1875 3 3 C3.1875 5.6875 3.1875 5.6875 3 8 C1.68 8 0.36 8 -1 8 C-1 7.34 -1 6.68 -1 6 C-0.34 6 0.32 6 1 6 C0.67 4.02 0.34 2.04 0 0 Z " fill="#75A011" transform="translate(273,13)"/>
<path d="M0 0 C2.62386487 3.06117568 3 3.73173127 3 8 C2.01 7.67 1.02 7.34 0 7 C0 4.69 0 2.38 0 0 Z " fill="#050700" transform="translate(100,321)"/>
</svg>
